HIERARCHY
ROOT Hips
{
	OFFSET -0.001795 -0.223333 0.028219
	CHANNELS 6 Xposition Yposition Zposition Zrotation Yrotation Xrotation 
	JOINT LeftUpLeg
	{
		OFFSET 0.069520 -0.091406 -0.006815
		CHANNELS 3 Zrotation Yrotation Xrotation
		JOINT LeftLeg
		{
			OFFSET 0.034277 -0.375199 -0.004496
			CHANNELS 3 Zrotation Yrotation Xrotation
			JOINT LeftFoot
			{
				OFFSET -0.013596 -0.397961 -0.043693
				CHANNELS 3 Zrotation Yrotation Xrotation
				JOINT LeftToe
				{
					OFFSET 0.026358 -0.055791 0.119288
					CHANNELS 3 Zrotation Yrotation Xrotation
					End Site
					{
						OFFSET 0.000000 0.000000 0.000000
					}
				}
			}
		}
	}
	JOINT RightUpLeg
	{
		OFFSET -0.067670 -0.090522 -0.004320
		CHANNELS 3 Zrotation Yrotation Xrotation
		JOINT RightLeg
		{
			OFFSET -0.038290 -0.382569 -0.008850
			CHANNELS 3 Zrotation Yrotation Xrotation
			JOINT RightFoot
			{
				OFFSET 0.015774 -0.398415 -0.042312
				CHANNELS 3 Zrotation Yrotation Xrotation
				JOINT RightToe
				{
					OFFSET -0.025372 -0.048144 0.123348
					CHANNELS 3 Zrotation Yrotation Xrotation
					End Site
					{
						OFFSET 0.000000 0.000000 0.000000
					}
				}
			}
		}
	}
	JOINT Spine
	{
		OFFSET -0.002533 0.108963 -0.026696
		CHANNELS 3 Zrotation Yrotation Xrotation
		JOINT Spine1
		{
			OFFSET 0.005487 0.135180 0.001092
			CHANNELS 3 Zrotation Yrotation Xrotation
			JOINT Spine2
			{
				OFFSET 0.001457 0.052922 0.025425
				CHANNELS 3 Zrotation Yrotation Xrotation
				JOINT Neck
				{
					OFFSET -0.002778 0.213870 -0.042857
					CHANNELS 3 Zrotation Yrotation Xrotation
					JOINT Head
					{
						OFFSET 0.005152 0.064970 0.051349
						CHANNELS 3 Zrotation Yrotation Xrotation
						End Site
						{
							OFFSET 0.000000 0.000000 0.000000
						}
					}
				}
				JOINT LeftShoulder
				{
					OFFSET 0.078845 0.121749 -0.034090
					CHANNELS 3 Zrotation Yrotation Xrotation
					JOINT LeftArm
					{
						OFFSET 0.090977 0.030469 -0.008868
						CHANNELS 3 Zrotation Yrotation Xrotation
						JOINT LeftForeArm
						{
							OFFSET 0.259612 -0.012772 -0.027456
							CHANNELS 3 Zrotation Yrotation Xrotation
							JOINT LeftHand
							{
								OFFSET 0.249234 0.008986 -0.001171
								CHANNELS 3 Zrotation Yrotation Xrotation
								End Site
								{
									OFFSET 0.000000 0.000000 0.000000
								}
							}
						}
					}
				}
				JOINT RightShoulder
				{
					OFFSET -0.081759 0.118833 -0.038615
					CHANNELS 3 Zrotation Yrotation Xrotation
					JOINT RightArm
					{
						OFFSET -0.096012 0.032551 -0.009143
						CHANNELS 3 Zrotation Yrotation Xrotation
						JOINT RightForeArm
						{
							OFFSET -0.253742 -0.013329 -0.021401
							CHANNELS 3 Zrotation Yrotation Xrotation
							JOINT RightHand
							{
								OFFSET -0.255298 0.007772 -0.005559
								CHANNELS 3 Zrotation Yrotation Xrotation
								End Site
								{
									OFFSET 0.000000 0.000000 0.000000
								}
							}
						}
					}
				}
			}
		}
	}
}
MOTION
Frames: 14
Frame Time: 0.050000
0.017061 0.964805 -0.050915 -1.694990 11.957282 -1.868903 6.424183 -0.263612 -0.768281 -1.345290 0.030729 2.842334 -3.883607 -1.170505 10.299741 0.000000 0.000000 0.000000 0.244960 -0.396448 3.417880 1.893370 -0.218612 2.563336 -10.007393 -21.772314 18.478900 0.000000 0.000000 0.000000 -4.635185 -0.056656 6.564937 0.968136 0.580689 -30.838957 2.300732 7.463639 29.701281 10.768877 -0.649590 -36.632019 0.000000 0.000000 0.000000 -21.678829 4.919654 -8.577104 -41.976759 1.948691 -6.528922 -52.276807 -42.470260 20.911209 0.000000 0.000000 0.000000 -11.056867 13.131661 1.987793 -18.568205 50.765379 -7.900676 -72.211369 5.477562 -0.191113 0.000000 0.000000 0.000000 
0.018089 0.965548 -0.051623 -1.559920 14.013860 -1.774343 6.284368 -0.299014 -1.129322 -1.483787 0.040777 2.693968 -4.996684 -2.458811 10.945842 0.000000 0.000000 0.000000 0.420599 -0.483988 4.032633 1.773800 -0.219311 1.960822 -10.908976 -22.926741 19.390472 0.000000 0.000000 0.000000 -4.504191 -0.080389 7.070527 0.512847 0.653837 -31.364565 2.525464 8.409182 29.513045 11.024529 -0.378077 -36.923693 0.000000 0.000000 0.000000 -21.238356 4.614027 -8.950954 -42.351669 2.978214 -6.786140 -49.270499 -41.177952 18.467435 0.000000 0.000000 0.000000 -12.515224 13.253700 1.471424 -19.638836 49.525776 -7.356999 -68.184509 1.850307 2.436593 0.000000 0.000000 0.000000 
0.019722 0.966203 -0.052077 -1.268653 15.893150 -1.790465 5.649056 -0.304666 -1.440644 -1.206460 0.000389 2.820889 -5.815021 -3.482031 11.181262 0.000000 0.000000 0.000000 0.145742 -0.522701 4.342209 1.808662 -0.235584 2.093710 -11.486508 -23.686615 19.494188 0.000000 0.000000 0.000000 -4.256057 -0.108136 7.314695 -0.318574 0.795096 -31.470633 2.785263 8.691420 29.289142 11.065907 -0.226602 -36.457117 0.000000 0.000000 0.000000 -21.030175 4.675951 -9.350246 -42.466765 4.023658 -7.062188 -46.377902 -40.045704 16.493236 0.000000 0.000000 0.000000 -13.626002 13.620081 1.160653 -19.865085 47.975362 -6.696433 -64.989442 0.024089 3.606402 0.000000 0.000000 0.000000 
0.021822 0.966272 -0.052600 -1.034137 17.812228 -1.940290 5.291483 -0.315525 -1.645017 -1.202819 -0.012634 2.954374 -6.604860 -4.591814 11.206595 0.000000 0.000000 0.000000 -0.058581 -0.610680 4.990385 1.673269 -0.228088 1.787970 -12.233521 -24.635528 20.091417 0.000000 0.000000 0.000000 -4.398746 -0.127382 7.849900 -0.208024 0.770312 -31.608448 2.628782 9.054618 29.060671 11.103182 -0.013787 -36.345227 0.000000 0.000000 0.000000 -20.923516 4.466090 -9.670090 -43.138626 5.401529 -7.564395 -43.151977 -39.526214 14.795988 0.000000 0.000000 0.000000 -14.125683 14.028460 1.004788 -19.238688 45.835752 -5.728575 -63.334570 -1.006895 4.400366 0.000000 0.000000 0.000000 
0.023723 0.966793 -0.053616 -0.794766 19.102065 -1.986450 4.915656 -0.315897 -1.790426 -1.133593 -0.025821 2.991050 -6.989730 -4.877791 11.516122 0.000000 0.000000 0.000000 -0.337173 -0.634164 5.165879 1.723056 -0.243906 1.850853 -12.694783 -25.215531 20.386190 0.000000 0.000000 0.000000 -4.507662 -0.141806 8.249331 -0.207729 0.760370 -31.832738 2.706281 9.294099 29.012299 11.041257 0.161202 -36.242379 0.000000 0.000000 0.000000 -20.705837 4.763145 -10.029612 -43.467672 6.379897 -7.954507 -39.150811 -39.500074 13.200397 0.000000 0.000000 0.000000 -13.976437 14.072779 0.986920 -18.962163 43.704907 -5.111424 -61.527820 -1.708489 4.811858 0.000000 0.000000 0.000000 
0.025029 0.967074 -0.055367 -0.350136 20.136382 -1.873244 4.221703 -0.305297 -2.069808 -0.931902 -0.047487 2.962570 -7.307203 -5.401577 11.375979 0.000000 0.000000 0.000000 -0.930153 -0.609241 5.026070 1.603249 -0.227717 2.489627 -13.019518 -25.617575 20.526619 0.000000 0.000000 0.000000 -4.705286 -0.147487 8.604271 0.177633 0.722082 -31.336485 2.398969 10.006224 28.439801 10.995616 0.364237 -36.022078 0.000000 0.000000 0.000000 -21.237270 4.528175 -10.521239 -43.063176 7.212197 -7.970927 -34.171932 -40.748600 11.702425 0.000000 0.000000 0.000000 -14.026233 14.375964 0.993327 -18.479061 41.336756 -4.383829 -60.472821 -2.316163 5.327627 0.000000 0.000000 0.000000 
0.025316 0.967533 -0.057975 -0.092121 20.826961 -1.584686 4.056085 -0.324746 -2.500425 -1.065872 -0.032711 2.834574 -7.409234 -5.367005 11.556322 0.000000 0.000000 0.000000 -1.319376 -0.535031 4.444314 1.697225 -0.249180 2.808895 -13.234391 -25.843492 20.660861 0.000000 0.000000 0.000000 -5.034266 -0.145832 9.081852 0.412524 0.678339 -31.348140 2.244071 10.053492 27.933855 10.723373 0.501886 -35.504607 0.000000 0.000000 0.000000 -21.325581 4.723130 -10.787774 -43.517577 7.306803 -8.054682 -28.762845 -41.769647 9.966577 0.000000 0.000000 0.000000 -13.893710 14.721022 1.148360 -18.435454 39.473358 -4.045523 -58.883248 -3.295840 5.751637 0.000000 0.000000 0.000000 
0.024684 0.967703 -0.061007 0.286158 21.214558 -1.692109 3.450314 -0.300083 -2.467412 -0.889203 -0.054360 2.942519 -7.179444 -5.213035 11.157767 0.000000 0.000000 0.000000 -1.714410 -0.477518 3.950881 1.499983 -0.216455 3.347990 -13.324515 -25.958666 20.539523 0.000000 0.000000 0.000000 -5.257573 -0.163434 9.856588 0.584899 0.654345 -31.187796 1.792193 9.959831 27.671583 10.733772 0.511905 -35.661387 0.000000 0.000000 0.000000 -21.640695 4.461317 -10.759985 -43.981363 7.121621 -8.094529 -24.535270 -42.182806 8.553833 0.000000 0.000000 0.000000 -13.108471 14.713513 1.412308 -18.241342 38.584389 -3.951874 -57.502253 -3.171115 5.471283 0.000000 0.000000 0.000000 
0.023291 0.967924 -0.064123 0.325861 20.230066 -1.423522 3.426788 -0.312824 -2.794327 -0.916698 -0.041008 2.761217 -6.861301 -4.449635 11.614721 0.000000 0.000000 0.000000 -1.992322 -0.384322 3.213961 1.452328 -0.199600 3.310695 -12.977255 -25.453065 20.464912 0.000000 0.000000 0.000000 -5.316657 -0.146114 9.871983 0.652500 0.658300 -30.773424 1.483204 10.177001 27.218024 10.513140 0.543282 -35.489251 0.000000 0.000000 0.000000 -22.065962 4.622886 -10.921110 -44.245124 5.740701 -7.597723 -20.575916 -41.175219 6.959372 0.000000 0.000000 0.000000 -12.704055 14.326717 1.482097 -16.459836 39.474970 -3.808040 -56.289107 -2.733021 5.147420 0.000000 0.000000 0.000000 
0.021415 0.967634 -0.066871 0.378413 19.402999 -1.306238 3.317477 -0.318182 -3.017247 -0.689722 -0.054831 2.656726 -5.933014 -3.407309 10.960485 0.000000 0.000000 0.000000 -2.392411 -0.307595 2.545350 1.340909 -0.171956 3.653047 -12.247433 -24.448804 19.825141 0.000000 0.000000 0.000000 -5.642018 -0.107143 9.547395 0.870001 0.630460 -30.232087 1.416821 9.511936 26.962516 10.226992 0.452609 -35.126858 0.000000 0.000000 0.000000 -22.585126 4.076781 -10.461422 -45.098841 4.533480 -7.375567 -18.012021 -40.507847 6.117714 0.000000 0.000000 0.000000 -10.396875 14.418301 2.287353 -13.826691 40.864219 -3.782863 -55.819851 1.292855 2.928629 0.000000 0.000000 0.000000 
0.019412 0.967402 -0.069151 0.184376 18.273984 -1.287223 3.579449 -0.326097 -3.124137 -1.106025 -0.004978 2.459683 -5.221438 -2.205648 11.136328 0.000000 0.000000 0.000000 -2.269377 -0.268522 2.255042 1.163998 -0.130751 3.703427 -11.695722 -23.732983 19.366422 0.000000 0.000000 0.000000 -5.891859 -0.075239 9.288107 1.273490 0.558578 -29.731621 1.016013 8.878240 26.474742 9.475706 0.560660 -34.578722 0.000000 0.000000 0.000000 -23.085586 3.619456 -10.001437 -45.686398 3.226039 -7.018625 -17.235483 -39.395033 5.852241 0.000000 0.000000 0.000000 -7.189439 13.898037 3.158328 -8.522186 41.915932 -3.044484 -56.596505 8.345896 -0.543184 0.000000 0.000000 0.000000 
0.017450 0.966814 -0.070854 0.028720 17.126285 -1.315148 3.780575 -0.321071 -3.056765 -1.063171 -0.007693 2.536616 -4.008022 -0.832937 10.238206 0.000000 0.000000 0.000000 -2.249039 -0.197970 1.622652 1.309262 -0.145784 4.235803 -10.789560 -22.477382 18.519248 0.000000 0.000000 0.000000 -6.404825 -0.021882 8.295918 1.776181 0.473380 -28.273921 0.825082 7.174573 26.001524 8.377976 0.624960 -33.673618 0.000000 0.000000 0.000000 -23.895686 3.466150 -9.444923 -46.283432 1.818831 -6.685877 -17.829633 -38.686351 6.249472 0.000000 0.000000 0.000000 -2.911243 13.470924 4.286615 -1.287910 42.674875 -1.826048 -58.033109 19.666135 -6.499893 0.000000 0.000000 0.000000 
0.015478 0.966474 -0.072002 -0.408553 15.812555 -1.517001 4.493591 -0.331289 -3.107333 -1.291307 0.010045 2.797470 -3.832146 -0.483483 10.570161 0.000000 0.000000 0.000000 -2.097229 -0.172393 1.448478 1.506432 -0.169622 4.466534 -10.066953 -21.421331 18.324409 0.000000 0.000000 0.000000 -6.721732 0.004328 7.905372 2.654106 0.271601 -27.826797 0.953890 6.073756 26.391557 7.486700 0.779182 -33.736259 0.000000 0.000000 0.000000 -25.428142 3.197517 -9.219697 -46.089113 0.852192 -6.326265 -19.399995 -39.134064 7.141574 0.000000 0.000000 0.000000 2.165719 12.409758 5.208393 7.599801 40.093524 -0.167143 -59.456088 34.313505 -14.556641 0.000000 0.000000 0.000000 
0.013093 0.966216 -0.072638 -0.749321 14.046165 -1.598495 5.019907 -0.317217 -2.882546 -1.266212 -0.002145 3.282096 -2.723531 0.946890 10.125101 0.000000 0.000000 0.000000 -2.318848 -0.140790 1.224502 2.088016 -0.258040 4.490641 -8.734589 -19.436142 17.704256 0.000000 0.000000 0.000000 -6.919005 0.027273 6.852073 3.396140 0.075965 -26.710143 0.957952 4.850098 26.640103 6.289590 1.013203 -33.795413 0.000000 0.000000 0.000000 -26.004267 3.237789 -8.608945 -46.459109 -1.559636 -5.685692 -21.115203 -38.531185 7.918861 0.000000 0.000000 0.000000 7.009941 10.989455 5.643328 17.809493 36.773696 1.341693 -56.386400 50.265154 -21.955217 0.000000 0.000000 0.000000 
